<?xml version="1.0" encoding="UTF-8" standalone="no"?>
<!-- Creator: CorelDRAW -->

<svg
   xmlns:dc="http://purl.org/dc/elements/1.1/"
   xmlns:cc="http://creativecommons.org/ns#"
   xmlns:rdf="http://www.w3.org/1999/02/22-rdf-syntax-ns#"
   xmlns:svg="http://www.w3.org/2000/svg"
   xmlns="http://www.w3.org/2000/svg"
   xmlns:sodipodi="http://sodipodi.sourceforge.net/DTD/sodipodi-0.dtd"
   xmlns:inkscape="http://www.inkscape.org/namespaces/inkscape"
   xml:space="preserve"
   width="1763"
   height="780"
   viewBox="0 0 1780.3826 787.7727"
   id="svg2"
   version="1.1"
   inkscape:version="0.91 r13725"
   sodipodi:docname="biografa.svg"
   style="clip-rule:evenodd;fill-rule:evenodd;image-rendering:optimizeQuality;shape-rendering:geometricPrecision;text-rendering:geometricPrecision"><metadata
     id="metadata60"><rdf:RDF><cc:Work
         rdf:about=""><dc:format>image/svg+xml</dc:format><dc:type
           rdf:resource="http://purl.org/dc/dcmitype/StillImage" /><dc:title></dc:title></cc:Work></rdf:RDF></metadata><defs
     id="defs58" /><sodipodi:namedview
     pagecolor="#ffffff"
     bordercolor="#666666"
     borderopacity="1"
     objecttolerance="10"
     gridtolerance="10"
     guidetolerance="10"
     inkscape:pageopacity="0"
     inkscape:pageshadow="2"
     inkscape:window-width="1512"
     inkscape:window-height="974"
     id="namedview56"
     showgrid="false"
     fit-margin-top="0"
     fit-margin-left="0"
     fit-margin-right="0"
     fit-margin-bottom="0"
     inkscape:zoom="0.61594942"
     inkscape:cx="951.10455"
     inkscape:cy="494.50012"
     inkscape:window-x="0"
     inkscape:window-y="0"
     inkscape:window-maximized="1"
     inkscape:current-layer="Ebene_x0020_1" /><g
     id="Ebene_x0020_1"
     transform="translate(-0.11695381,-211.08236)"><metadata
       id="CorelCorpID_0Corel-Layer" /><polygon
       points="734.918,160.833 895.854,160.833 895.854,0 734.918,0 "
       id="polygon46"
       style="fill:#3a3e41;stroke:none"
       transform="translate(0,216.13246)" /><path
       d="m 389.116,997.24254 c -82.6769,0 -138.058,-30.42133 -170.694,-93.62453 l -29.3347,75.167 -105.537,0 0,-625.67 c 0,-35.9094 -9.62236,-47.89111 -39.0489,-47.89111 l -44.5012,0 0,-89.09064 244.529,0 0,304.78005 c 50.0441,-56.3099 92.4758,-75.9471 157.684,-75.9471 140.283,0 221.773,99.994 221.773,277.015 0,168.691 -90.2285,275.26403 -234.87,275.26403 M 351.0514,548.20521 c -68.4038,0 -108.63,66.3176 -108.63,180.458 0,109.701 36.8958,170.634 103.221,170.634 67.3195,0 106.523,-64.1646 106.523,-177.316 0,-109.613 -36.9901,-173.776 -101.114,-173.776 z"
       id="path48"
       style="fill:#3a3e41;stroke:none"
       inkscape:connector-curvature="0" /><path
       d="m 649.009,978.78451 0,-88.1137 46.8069,0 c 29.3418,0 39.1025,-11.9686 39.1025,-48.9694 l 0,-244.637 c 0,-35.8175 -9.76072,-47.7814 -39.1025,-47.7814 l -46.8069,0 0,-89.2003 246.845,0 0,381.619 c 0,36.012 9.85734,48.9694 39.1991,48.9694 l 45.6343,0 0,88.1137 -331.679,0 z"
       id="path50"
       style="fill:#3a3e41;stroke:none"
       inkscape:connector-curvature="0" /><path
       d="m 1281.15,997.24254 c -176.193,0 -288.204,-107.66603 -288.204,-276.14703 0,-169.568 112.012,-276.13 288.204,-276.13 175.018,0 286.885,106.562 286.885,276.13 0,168.48 -111.867,276.14903 -286.885,276.14903 m 0,-465.34103 c -74.0815,0 -116.277,69.4725 -116.277,189.192 0,119.527 42.1943,189.103 116.277,189.103 72.8076,0 115.248,-69.5751 115.248,-189.103 0,-119.719 -42.4412,-189.192 -115.248,-189.192 z"
       id="path52"
       style="fill:#3a3e41;stroke:none"
       inkscape:connector-curvature="0" /><path
       d="m 1779.3,894.19751 c 0,-51.3133 -41.5537,-92.9314 -92.9231,-92.9314 -51.2226,0 -92.8193,41.6194 -92.8193,92.9314 0,51.2238 41.5967,92.8372 92.8193,92.8372 51.3693,0 92.9207,-41.6134 92.9231,-92.8372 z"
       id="path54"
       style="fill:#d02a2b;stroke:none"
       inkscape:connector-curvature="0" /></g></svg>